<svg xmlns="http://www.w3.org/2000/svg" xmlns:xlink="http://www.w3.org/1999/xlink" id="processonSvg1000" viewBox="361.0 225.0 352.0 261.0" width="352.0" height="261.0"><defs id="ProcessOnDefs1001"/><g id="ProcessOnG1002"><path id="ProcessOnPath1003" d="M361.0 225.0H713.0V486.0H361.0V225.0Z" fill="none"/><g id="ProcessOnG1004"><g id="ProcessOnG1005" transform="matrix(1.0,0.0,0.0,1.0,381.0,245.0)" opacity="1.0"><path id="ProcessOnPath1006" d="M0.0 0.0L312.0 0.0L312.0 221.0L0.0 221.0Z" stroke="#323232" stroke-width="2.0" stroke-dasharray="none" opacity="1.0" fill="#ffffff"/></g><g id="ProcessOnG1007" transform="matrix(1.0,0.0,0.0,1.0,463.5,308.75)" opacity="1.0"><path id="ProcessOnPath1008" d="M0.0 0.0L147.0 0.0L147.0 93.5L0.0 93.5Z" stroke="#323232" stroke-width="2.0" stroke-dasharray="none" opacity="1.0" fill="#ffffff"/><g id="ProcessOnG1009" transform="matrix(1.0,0.0,0.0,1.0,10.0,38.625)"><text id="ProcessOnText1010" fill="#000000" font-weight="normal" font-style="normal" text-decoration="blink" font-family="微软雅黑" text-anchor="middle" font-size="13" x="63.5" y="13.325">content</text></g></g><g id="ProcessOnG1011" transform="matrix(1.0,0.0,0.0,1.0,504.0,267.0)" opacity="1.0"><path id="ProcessOnPath1012" d="M0.0 0.0L66.0 0.0L66.0 20.0L0.0 20.0Z" stroke="#323232" stroke-width="0.0" stroke-dasharray="none" opacity="1.0" fill="none"/><g id="ProcessOnG1013" transform="matrix(1.0,0.0,0.0,1.0,0.0,1.875)"><text id="ProcessOnText1014" fill="#000000" font-weight="normal" font-style="normal" text-decoration="blink" font-family="微软雅黑" text-anchor="middle" font-size="13" x="33.0" y="13.325">container</text></g></g></g></g></svg>